<?xml version="1.0" encoding="UTF-8"?>
<svg version="1.1" viewBox="0 0 128.17 128.04" xmlns="http://www.w3.org/2000/svg" xmlns:xlink="http://www.w3.org/1999/xlink">
 <title>DokuWiki Logo</title>
 <defs>
  <linearGradient id="linearGradient2360">
   <stop stop-color="#d69c00" offset="0"/>
   <stop stop-color="#ffe658" offset="1"/>
  </linearGradient>
  <linearGradient id="linearGradient2227" x1="192.04" x2="263.67" y1="262.26" y2="262.26" gradientUnits="userSpaceOnUse">
   <stop stop-color="#00a423" offset="0"/>
   <stop stop-color="#00b427" offset="1"/>
  </linearGradient>
  <linearGradient id="linearGradient2247" x1="191.75" x2="255.66" y1="258.92" y2="258.92" gradientUnits="userSpaceOnUse">
   <stop stop-color="#00b62b" offset="0"/>
   <stop stop-color="#a1d784" offset="1"/>
  </linearGradient>
  <radialGradient id="radialGradient2317" cx="257.41" cy="274.64" r="7.1441" gradientTransform="matrix(1 0 0 1.6314 0 -173.4)" gradientUnits="userSpaceOnUse" xlink:href="#linearGradient2360"/>
  <linearGradient id="linearGradient2325" x1="184.07" x2="201.41" y1="246.36" y2="246.36" gradientUnits="userSpaceOnUse" xlink:href="#linearGradient2360"/>
  <linearGradient id="linearGradient2346" x1="162.76" x2="240.85" y1="184.99" y2="289.5" gradientUnits="userSpaceOnUse">
   <stop stop-color="#ede1ae" offset="0"/>
   <stop stop-color="#fefdfa" offset="1"/>
  </linearGradient>
  <linearGradient id="linearGradient2354" x1="140.16" x2="136.14" y1="303.79" y2="195.87" gradientUnits="userSpaceOnUse">
   <stop stop-color="#fbf6f0" offset="0"/>
   <stop stop-color="#e9dac7" offset="1"/>
  </linearGradient>
  <linearGradient id="linearGradient2362" x1="286.16" x2="185.81" y1="262.29" y2="172.32" gradientUnits="userSpaceOnUse">
   <stop stop-color="#fbfaf9" offset="0"/>
   <stop stop-color="#e9dac7" offset="1"/>
  </linearGradient>
  <linearGradient id="linearGradient2395" x1="213.97" x2="244.79" y1="220.07" y2="265.4" gradientUnits="userSpaceOnUse">
   <stop stop-opacity=".17347" offset="0"/>
   <stop stop-color="#c7cec2" stop-opacity="0" offset="1"/>
  </linearGradient>
  <linearGradient id="linearGradient2406" x1="184.31" x2="224.67" y1="241.53" y2="307.53" gradientUnits="userSpaceOnUse">
   <stop stop-opacity=".17347" offset="0"/>
   <stop stop-color="#c7cec2" stop-opacity="0" offset="1"/>
  </linearGradient>
  <linearGradient id="linearGradient2606" x1="202.42" x2="206.06" y1="222.05" y2="210.36" gradientUnits="userSpaceOnUse">
   <stop stop-color="#e32525" stop-opacity=".81633" offset="0"/>
   <stop stop-color="#e32525" stop-opacity=".57143" offset="1"/>
  </linearGradient>
  <linearGradient id="linearGradient2618" x1="248.62" x2="251.64" y1="234.52" y2="213.12" gradientUnits="userSpaceOnUse">
   <stop stop-color="#25901b" stop-opacity=".83673" offset="0"/>
   <stop stop-color="#25901b" stop-opacity=".37755" offset="1"/>
  </linearGradient>
  <linearGradient id="linearGradient2630" x1="275.72" x2="255.68" y1="251.56" y2="217.94" gradientUnits="userSpaceOnUse">
   <stop stop-color="#3a9030" stop-opacity=".83673" offset="0"/>
   <stop stop-color="#3d9c32" stop-opacity=".79592" offset="1"/>
  </linearGradient>
  <linearGradient id="linearGradient2640" x1="219.66" x2="277.88" y1="192.73" y2="192.73" gradientUnits="userSpaceOnUse">
   <stop stop-color="#ce411e" offset="0"/>
   <stop stop-color="#ecad8d" offset="1"/>
  </linearGradient>
  <linearGradient id="linearGradient2643" x1="219.21" x2="286.23" y1="189.02" y2="189.02" gradientUnits="userSpaceOnUse">
   <stop stop-color="#8f2a15" offset="0"/>
   <stop stop-color="#c8381b" offset="1"/>
  </linearGradient>
  <radialGradient id="radialGradient2647" cx="224.41" cy="212.8" r="8.6814" gradientTransform="matrix(1 0 0 .98418 0 3.3666)" gradientUnits="userSpaceOnUse" xlink:href="#linearGradient2360"/>
 </defs>
 <g transform="translate(-158.11 -158.67)">
  <g transform="matrix(.99993 0 0 .99598 .014834 .89579)">
   <g fill-rule="evenodd" stroke="#000">
    <path transform="matrix(.98998 -.14124 .20107 .97958 0 0)" d="m120.22 196.44 70.907-0.79226-2.4026 109.05-71.718 0.37344 3.2137-108.63z" fill="url(#linearGradient2354)" stroke-width=".72166px"/>
    <path d="m179.2 182.09 79.842-19.517 26.614 101.72-82.503 21.587-23.953-103.79z" fill="url(#linearGradient2362)" stroke-width="1px"/>
    <path transform="matrix(.99568 -.092899 .081023 .99671 0 0)" d="m159.01 181.74 85.586 0.53396v110.47l-84.534-2.5127-1.052-108.5z" fill="url(#linearGradient2346)" stroke-width="1.0042px"/>
   </g>
   <path transform="matrix(.99543 -.095461 .095461 .99543 0 0)" d="m167.55 214.01v-20.185h5.3496v2.374h-2.4814v15.437h2.4814v2.374h-5.3496m7.3477 0v-20.185h5.3496v2.374h-2.4814v15.437h2.4814v2.374h-5.3496m7.3692-20.185h5.8115c1.3105 2e-5 2.3096 0.10028 2.9971 0.30078 0.92382 0.27216 1.7152 0.75555 2.374 1.4502 0.65884 0.69468 1.1601 1.5469 1.5039 2.5566 0.34373 1.0026 0.51561 2.2416 0.51562 3.7168-1e-5 1.2962-0.16115 2.4134-0.4834 3.3516-0.39389 1.1458-0.95607 2.0732-1.6865 2.7822-0.55145 0.53711-1.2962 0.95606-2.2344 1.2568-0.70183 0.222-1.64 0.33301-2.8145 0.33301h-5.9834v-15.748m3.1797 2.6641v10.431h2.374c0.88802 1e-5 1.529-0.0501 1.9229-0.15039 0.51561-0.1289 0.94172-0.34732 1.2783-0.65527 0.34374-0.30794 0.62304-0.81282 0.83789-1.5146 0.21483-0.70898 0.32226-1.6722 0.32227-2.8896-1e-5 -1.2174-0.10744-2.152-0.32227-2.8037-0.21485-0.65168-0.51563-1.1601-0.90234-1.5254-0.38673-0.36522-0.87729-0.61229-1.4717-0.74121-0.44402-0.10025-1.3141-0.15038-2.6104-0.15039h-1.4287m14.964 13.084-3.7598-15.748h3.2549l2.374 10.817 2.8789-10.817h3.7812l2.7607 11 2.417-11h3.2012l-3.8242 15.748h-3.373l-3.1367-11.773-3.126 11.773h-3.4482m22.763-15.748v20.185h-5.3496v-2.374h2.4814v-15.458h-2.4814v-2.3525h5.3496m7.3477 0v20.185h-5.3496v-2.374h2.4814v-15.458h-2.4814v-2.3525h5.3496" fill="#6184a3"/>
   <g fill-rule="evenodd">
    <path d="m174.76 201.6c-6.0458 2.4667-10.168 4.4194-12.885 6.3506s-3.1926 4.6001-3.2463 6.2659c-0.0269 0.8329 0.0809 1.7777 0.63189 2.4401 0.55103 0.6624 1.8077 1.8742 2.7579 2.3856 1.9005 1.0227 7.5417 2.429 10.519 3.0731 11.909 2.5763 26.806 1.6812 26.806 1.6812 1.6931 1.2452 2.8328 2.8243 3.269 4.269 4.5766-1.8867 11.811-6.5844 13.157-8.5771-5.4514-4.1996-10.797-6.3335-16.513-8.3085-1.5987-0.71918-2.8796-1.2265-0.71773 2.5564 0.98506 2.4728 0.85786 5.0514 0.57176 7.4182 0 0-16.527 0.40678-28.238-2.1266-2.9277-0.63334-5.4663-0.95523-7.2188-1.8983-0.87624-0.47154-1.483-0.8208-1.9158-1.3411s-0.2196-1.2906-0.20128-1.8586c0.0366-1.1361 0.25336-1.6706 2.8618-3.5249s5.6541-3.362 11.659-5.8121c-0.0877-1.2912-0.29025-2.5059-1.297-2.9929z" fill="url(#linearGradient2606)"/>
    <path d="m269.63 220.75c-1.4358-0.13963-2.5804 0.30288-2.5608 1.5022 0.94391 0.85652 1.3494 2.4352 1.4856 3.1401s0.0359 1.2191-0.48562 1.89c-1.043 1.3418-3.125 1.5688-6.5006 2.7206-6.7512 2.3038-16.893 2.5256-27.907 3.8464-22.028 2.6416-39.032 3.7611-39.032 3.7611 1.9835-4.6476 6.3283-4.412 6.349-8.2097 0.27376-0.89755-3.146-1.3164-5.0994-0.10731-4.2669 3.7014-7.5915 6.7535-10.694 10.513l1.888 3.0844s26.13-2.8897 48.198-5.5361c11.034-1.3232 20.956-1.9986 27.81-4.3373 3.4268-1.1694 5.9598-1.4902 7.6409-3.5196 0.63172-0.76256 1.3524-3.047 1.068-4.7337-0.21951-1.3021-1.1498-3.0977-2.1598-4.0142z" fill="url(#linearGradient2618)"/>
    <path d="m254.36 220.34c-6.85 3.242-7.1531 8.6091-5.9595 12.799s5.2629 8.7568 9.3212 12.406c8.1166 7.2986 12.06 9.3316 12.06 9.3316-3.7152-0.10342-7.8989-1.4117-8.1332 0.49304-0.9483 2.9758 11.491 3.4749 17.438 2.702-1.3946-7.5784-3.7932-13.215-7.7315-14.903-1.6846-0.14804 0.31242 4.7244 0.76985 9.396 0 0-3.6245-1.7312-11.605-8.9076-3.9903-3.5882-7.3739-7.3421-8.4732-11.201s0.0776-6.1205 4.9508-9.5318c0.92816-0.99528-1.2898-2.4591-2.6376-2.5842z" fill="url(#linearGradient2630)"/>
   </g>
   <path d="m213.97 234.58 2.1876-14.429 15.22 6.0879 21.494 29.948-20.406 9.2183-18.495-30.826z" fill="url(#linearGradient2395)"/>
   <g>
    <g fill-rule="evenodd">
     <path d="m232.56 219.53-15.928 0.32199 3.0881-15.157 12.84 14.835z" fill="url(#radialGradient2647)" stroke="#000" stroke-linejoin="round" stroke-width="1px"/>
     <path d="m221.6 219.29-4.412 0.0782 0.85429-3.9826 3.5578 3.9044z" fill="#812310"/>
     <path d="m269.44 159.27 0.098 8.9147 8.0581 8.7234 7.7591 0.7992-52.807 41.841-6.6653-3.307-5.0824-5.618-1.0899-5.9119 49.729-45.441z" fill="url(#linearGradient2643)" stroke="#000" stroke-linejoin="round" stroke-width="1px"/>
     <path d="m268.95 168.33 8.3426 8.8272-51.101 38.683-4.9197-5.4436 47.678-42.066z" fill="url(#linearGradient2640)"/>
     <path d="m285.34 177.73-8.1622-0.86619-7.7518-8.6786 0.0132-9.1429 8.3621 0.75209 7.1886 9.5768 0.35007 8.3588z" fill="#ffe965" stroke="#000" stroke-linejoin="round" stroke-width="1px"/>
     <path d="m280.72 168.46 0.1644 4.0565-3.8134-0.71676-2.875-3.189-0.28089-3.5339 3.8545-0.16637 2.9504 3.5495z" fill="#cb391c"/>
    </g>
    <path d="m183.89 256.83 0.99991-16.307 17.288 8.4401 26.055 38.009-29.281-1.1336-15.062-29.009z" fill="url(#linearGradient2406)"/>
    <g stroke="#000" stroke-linejoin="round">
     <path d="m200.91 238.45-8.046 15.774-7.0558-13.573 15.102-2.2005z" fill="url(#linearGradient2325)"/>
     <path d="m201.05 238.55 62.117 24.919-7.8869 3.2143-4.3515 9.3098 1.1716 9.964-59.315-31.728-0.49402-7.3638 3.0959-5.8283 5.6624-2.4875z" fill="url(#linearGradient2227)"/>
     <path d="m255.28 266.54 7.9241-3.0477 0.85337 10.24-3.9011 8.2898-8.046 3.7792-1.341-9.6308 4.5106-9.6308z" fill="url(#radialGradient2317)"/>
    </g>
    <path d="m195.75 241.42 59.131 24.796-4.5917 9.7661-57.49-29.01 2.9511-5.5527z" fill="url(#linearGradient2247)"/>
    <path d="m255.02 275.21 2.0841-4.1069 2.9646-1.07 0.69433 3.372-1.7676 3.8572-3.1552 1.3832-0.82028-3.4355z" fill="#00b527"/>
    <path d="m186.57 241 3.5496-0.47312-2.023 3.5393-1.5267-3.0661z" fill="#258209"/>
   </g>
  </g>
 </g>
</svg>
